# xmcd
#
# Track frame offsets:
#	150
#	11250
#	13716
#	29522
#	44200
#	59924
#	70458
#	83784
#	96589
#	114012
#
# Disc length: 1697 seconds
#
# Revision: 0
# Processed by: cddbd v1.5.2PL0 Copyright (c) Steve Scherf et al.
# Submitted via: EasyCDDAExtractor 12.0.1.1
#
DISCID=89069f0a
DTITLE=Alan Jackson - A Lot About Livin' (And a Little 'Bout Love)
DYEAR=1994
DGENRE=Country
TTITLE0=Chattahoochee
TTITLE1=She's Got the Rhythm (And I Got the Blues)
TTITLE2=Tonight I Climbed the Wall
TTITLE3=I Don't Need the Booze (To Get a Buzz On)
TTITLE4=(Who Says) You Can't Have It All
TTITLE5=Up to My Ears in Tears
TTITLE6=Tropical Depression
TTITLE7=She Likes It Too
TTITLE8=If It Ain't One Thing (It's You)
TTITLE9=Mercury Blues
EXTD=
EXTT0=
EXTT1=
EXTT2=
EXTT3=
EXTT4=
EXTT5=
EXTT6=
EXTT7=
EXTT8=
EXTT9=
PLAYORDER=
